<svg xmlns="http://www.w3.org/2000/svg" viewBox="0 0 20 20" fill="currentColor"><path d="M10,14 L14,14 L14,10 L10,10 L10,14 Z M6,10 L10,10 L10,6 L6,6 L6,10 Z M18,6 L14,6 L14,10 L18,10 L18,14 L14,14 L14,18 L10,18 L10,14 L6,14 L6,18 L3,18 C2.448,18 2,17.657 2,17.105 L2,14 L6,14 L6,10 L2,10 L2,6 L6,6 L6,2 L10,2 L10,6 L14,6 L14,2 L17,2 C17.552,2 18,2.552 18,3.105 L18,6 Z M18,0 L2,0 C0.895,0 0,0.895 0,2 L0,18 C0,19.104 0.895,20 2,20 L18,20 C19.105,20 20,19.104 20,18 L20,2 C20,0.895 19.105,0 18,0 L18,0 Z"/></svg>