<svg width="24" height="24" viewBox="0 0 24 24" fill="rgb(181, 136, 99)" xmlns="http://www.w3.org/2000/svg">
<path d="M13 2C13 1.44772 12.5523 1 12 1C11.4477 1 11 1.44772 11 2H13ZM11 3C11 3.55228 11.4477 4 12 4C12.5523 4 13 3.55228 13 3H11ZM3 13C3.55228 13 4 12.5523 4 12C4 11.4477 3.55228 11 3 11V13ZM2 11C1.44772 11 1 11.4477 1 12C1 12.5523 1.44772 13 2 13V11ZM4.79289 6.20711C5.18342 6.59763 5.81658 6.59763 6.20711 6.20711C6.59763 5.81658 6.59763 5.18342 6.20711 4.79289L4.79289 6.20711ZM5.60701 4.1928C5.21648 3.80227 4.58332 3.80227 4.1928 4.1928C3.80227 4.58332 3.80227 5.21648 4.1928 5.60701L5.60701 4.1928ZM17.793 4.7928C17.4024 5.18328 17.4023 5.81644 17.7928 6.20702C18.1833 6.59759 18.8164 6.59767 19.207 6.2072L17.793 4.7928ZM19.8073 5.6071C20.1978 5.21662 20.1979 4.58346 19.8074 4.19288C19.417 3.80231 18.7838 3.80223 18.3932 4.19271L19.8073 5.6071ZM22 13C22.5523 13 23 12.5523 23 12C23 11.4477 22.5523 11 22 11V13ZM21 11C20.4477 11 20 11.4477 20 12C20 12.5523 20.4477 13 21 13V11ZM15.5 16.874L14.916 16.0622C14.6548 16.2501 14.5 16.5522 14.5 16.874H15.5ZM8.5 16.874H9.5C9.5 16.5522 9.34517 16.2501 9.08397 16.0622L8.5 16.874ZM14.408 21.782L13.954 20.891L14.408 21.782ZM15.282 20.908L14.391 20.454L15.282 20.908ZM8.71799 20.908L9.60899 20.454L8.71799 20.908ZM9.59202 21.782L10.046 20.891L9.59202 21.782ZM10 12.5C9.44772 12.5 9 12.9477 9 13.5C9 14.0523 9.44772 14.5 10 14.5V12.5ZM14 14.5C14.5523 14.5 15 14.0523 15 13.5C15 12.9477 14.5523 12.5 14 12.5V14.5ZM13 13.5C13 12.9477 12.5523 12.5 12 12.5C11.4477 12.5 11 12.9477 11 13.5H13ZM11 18.5C11 19.0523 11.4477 19.5 12 19.5C12.5523 19.5 13 19.0523 13 18.5H11ZM11 2V3H13V2H11ZM3 11H2V13H3V11ZM6.20711 4.79289L5.60701 4.1928L4.1928 5.60701L4.79289 6.20711L6.20711 4.79289ZM19.207 6.2072L19.8073 5.6071L18.3932 4.19271L17.793 4.7928L19.207 6.2072ZM22 11H21V13H22V11ZM16.084 17.6857C17.848 16.4167 19 14.3429 19 12H17C17 13.6722 16.1801 15.1528 14.916 16.0622L16.084 17.6857ZM19 12C19 8.13401 15.866 5 12 5V7C14.7614 7 17 9.23858 17 12H19ZM12 5C8.13401 5 5 8.13401 5 12H7C7 9.23858 9.23858 7 12 7V5ZM5 12C5 14.3429 6.15199 16.4167 7.91603 17.6857L9.08397 16.0622C7.81987 15.1528 7 13.6722 7 12H5ZM9.5 18.8V16.874H7.5V18.8H9.5ZM12.3 21H11.7V23H12.3V21ZM14.5 16.874V18.8H16.5V16.874H14.5ZM12.3 23C12.8436 23 13.3114 23.0008 13.695 22.9694C14.0904 22.9371 14.4836 22.8658 14.862 22.673L13.954 20.891C13.9045 20.9162 13.8038 20.9539 13.5322 20.9761C13.2488 20.9992 12.8766 21 12.3 21V23ZM14.5 18.8C14.5 19.3766 14.4992 19.7488 14.4761 20.0322C14.4539 20.3038 14.4162 20.4045 14.391 20.454L16.173 21.362C16.3658 20.9836 16.4371 20.5904 16.4694 20.195C16.5008 19.8114 16.5 19.3436 16.5 18.8H14.5ZM14.862 22.673C15.4265 22.3854 15.8854 21.9265 16.173 21.362L14.391 20.454C14.2951 20.6422 14.1422 20.7951 13.954 20.891L14.862 22.673ZM7.5 18.8C7.5 19.3436 7.49922 19.8114 7.53057 20.195C7.56287 20.5904 7.63419 20.9836 7.82698 21.362L9.60899 20.454C9.5838 20.4045 9.54612 20.3038 9.52393 20.0322C9.50078 19.7488 9.5 19.3766 9.5 18.8H7.5ZM11.7 21C11.1234 21 10.7512 20.9992 10.4678 20.9761C10.1962 20.9539 10.0955 20.9162 10.046 20.891L9.13803 22.673C9.51641 22.8658 9.90963 22.9371 10.305 22.9694C10.6886 23.0008 11.1564 23 11.7 23V21ZM7.82698 21.362C8.1146 21.9265 8.57354 22.3854 9.13803 22.673L10.046 20.891C9.85785 20.7951 9.70487 20.6422 9.60899 20.454L7.82698 21.362ZM10 14.5H14V12.5H10V14.5ZM11 13.5V18.5H13V13.5H11Z" />
</svg>

<svg xmlns="http://www.w3.org/2000/svg" viewBox="0 0 384 512"><!--!Font Awesome Free 6.7.2 by @fontawesome - https://fontawesome.com License - https://fontawesome.com/license/free Copyright 2025 Fonticons, Inc.--><path d="M272 384c9.6-31.9 29.5-59.1 49.2-86.2c0 0 0 0 0 0c5.2-7.1 10.4-14.2 15.4-21.4c19.8-28.5 31.4-63 31.4-100.3C368 78.8 289.2 0 192 0S16 78.8 16 176c0 37.3 11.6 71.9 31.4 100.3c5 7.2 10.2 14.3 15.4 21.4c0 0 0 0 0 0c19.8 27.1 39.7 54.4 49.2 86.2l160 0zM192 512c44.2 0 80-35.8 80-80l0-16-160 0 0 16c0 44.2 35.8 80 80 80zM112 176c0 8.8-7.2 16-16 16s-16-7.2-16-16c0-61.9 50.1-112 112-112c8.8 0 16 7.2 16 16s-7.2 16-16 16c-44.2 0-80 35.8-80 80z" fill="rgb(181, 136, 99)"/></svg>