<svg width="24" height="24" viewBox="0 0 24 24" fill="none" xmlns="http://www.w3.org/2000/svg">
<path d="M5.63384 5.63824L6.34119 6.34511L5.63384 5.63824ZM2 10H1C1 10.5523 1.44772 11 2 11V10ZM4.31256 14.2227C4.15944 13.6921 3.60515 13.3861 3.07452 13.5392C2.54388 13.6923 2.23785 14.2466 2.39097 14.7773L4.31256 14.2227ZM3 4C3 3.44772 2.55228 3 2 3C1.44772 3 1 3.44772 1 4H3ZM8 11C8.55228 11 9 10.5523 9 10C9 9.44772 8.55228 9 8 9V11ZM20 12C20 16.4183 16.4183 20 12 20V22C17.5228 22 22 17.5228 22 12H20ZM12 4C16.4183 4 20 7.58172 20 12H22C22 6.47715 17.5228 2 12 2V4ZM6.34119 6.34511C7.79015 4.89514 9.78959 4 12 4V2C9.2376 2 6.73522 3.12139 4.92649 4.93138L6.34119 6.34511ZM4.92649 4.93138C4.07072 5.78774 3.13381 6.91428 2.42329 7.80809C2.06509 8.25871 1.75876 8.65737 1.54178 8.94364C1.43322 9.08687 1.34685 9.2022 1.28733 9.28211C1.25757 9.32207 1.23451 9.35319 1.21873 9.37454C1.21085 9.38521 1.20478 9.39344 1.2006 9.39911C1.19852 9.40194 1.1969 9.40413 1.19577 9.40567C1.19521 9.40644 1.19476 9.40705 1.19444 9.40749C1.19427 9.40771 1.19414 9.40789 1.19404 9.40803C1.19399 9.4081 1.19394 9.40817 1.19391 9.4082C1.19387 9.40826 1.19383 9.40831 2 10C2.80617 10.5917 2.80615 10.5917 2.80613 10.5917C2.80614 10.5917 2.80613 10.5917 2.80614 10.5917C2.80616 10.5917 2.80621 10.5916 2.8063 10.5915C2.80646 10.5913 2.80674 10.5909 2.80715 10.5904C2.80796 10.5893 2.80924 10.5875 2.811 10.5851C2.81451 10.5804 2.8199 10.573 2.82709 10.5633C2.84148 10.5438 2.86309 10.5147 2.89133 10.4768C2.94783 10.4009 3.03082 10.2901 3.13568 10.1517C3.34553 9.87487 3.64226 9.4887 3.9889 9.05263C4.68809 8.17306 5.5681 7.11872 6.34119 6.34511L4.92649 4.93138ZM12 20C8.35426 20 5.27571 17.5605 4.31256 14.2227L2.39097 14.7773C3.59451 18.9481 7.43955 22 12 22V20ZM1 4V10H3V4H1ZM2 11H8V9H2V11Z" fill="#c62828"/>
</svg>
